PathFileType	4	(x/y/z)	S06_PSF_T04
DataRate	CameraRate	NumFrames	NumMarkers	Units	OrigDataRate	OrigDataStartFrame	OrigNumFrames
240	240	5	51	mm	240	309	411
Frame#	Time	Sternum			R.Acromium			L.Acromium			Top.Head			R.ASIS			L.ASIS			R.PSIS			L.PSIS			R.Great.Tro			L.Great.Tro			R.Iliac.Crest			L.Iliac.Crest			V.Sacral			R.Thigh.Upper.Post			R.Thigh.Lower.Ant			R.Thigh.Lower.Post			R.Thigh.Upper.Ant			R.Knee.Lat			R.Knee.Med			R.Shank.Upper.Post			R.Shank.Lower.Ant			R.Shank.Lower.Post			R.Shank.Upper.Ant			R.Ankle.Lat			R.Ankle.Med			R.Heel.Upper			R.Heel.Med			R.Heel.Lat			R.Toe.Lat			R.Toe.Med			R.Toe.Tip			L.Thigh.Upper.Post			L.Thigh.Lower.Ant			L.Thigh.Lower.Post			L.Thigh.Upper.Ant			L.Knee.Lat			L.Knee.Med			L.Shank.Upper.Post			L.Shank.Lower.Ant			L.Shank.Lower.Post			L.Shank.Upper.Ant			L.Ankle.Lat			L.Ankle.Med			L.Heel.Upper			L.Heel.Med			L.Heel.Lat			L.Toe.Lat			L.Toe.Med			L.Toe.Tip			Cervical.Spine			Back			
		X1	Y1	Z1	X2	Y2	Z2	X3	Y3	Z3	X4	Y4	Z4	X5	Y5	Z5	X6	Y6	Z6	X7	Y7	Z7	X8	Y8	Z8	X9	Y9	Z9	X10	Y10	Z10	X11	Y11	Z11	X12	Y12	Z12	X13	Y13	Z13	X14	Y14	Z14	X15	Y15	Z15	X16	Y16	Z16	X17	Y17	Z17	X18	Y18	Z18	X19	Y19	Z19	X20	Y20	Z20	X21	Y21	Z21	X22	Y22	Z22	X23	Y23	Z23	X24	Y24	Z24	X25	Y25	Z25	X26	Y26	Z26	X27	Y27	Z27	X28	Y28	Z28	X29	Y29	Z29	X30	Y30	Z30	X31	Y31	Z31	X32	Y32	Z32	X33	Y33	Z33	X34	Y34	Z34	X35	Y35	Z35	X36	Y36	Z36	X37	Y37	Z37	X38	Y38	Z38	X39	Y39	Z39	X40	Y40	Z40	X41	Y41	Z41	X42	Y42	Z42	X43	Y43	Z43	X44	Y44	Z44	X45	Y45	Z45	X46	Y46	Z46	X47	Y47	Z47	X48	Y48	Z48	X49	Y49	Z49	X50	Y50	Z50	X51	Y51	Z51	

309	1.2833	128.59	1277.8	346.92	0.62565	1483.2	512.08	-12.535	1478.1	159.97	38.666	1799.1	332.35	76.446	1037.3	473.93	98.266	1047	219.95	-116.44	1055	369.95	-111.56	1059.4	289.71	15.278	958	517.26	10.973	966.89	161.22	-9.1943	1111.3	500.71	24.08	1113.5	181.22	-125.54	1022	331.87	17.15	707.98	519.44	79.333	628.41	501.84	10.634	619.46	505.23	90.493	718.77	512.6	17.423	512.83	498.64	54.57	506.17	373.69	-174.72	396.96	479.89	-183.82	308.83	457.42	-234.64	351.71	458.93	-124.68	354.15	478.24	-310.43	247.55	431.52	-286.43	242.16	344.95	-365.19	282.85	379.48	-385.34	266.05	343.3	-394.53	258.97	407.61	-332.68	91.109	438.07	-297.82	88.081	321.83	-259.75	38.151	365.65	133.35	722.19	186.99	193.22	658.6	254.27	133.29	633.36	208.82	185.95	750.04	228.62	139.66	541.01	226.51	155.47	555.25	346.64	115.04	310.93	239.22	183.37	254.5	249	113.94	239.32	257.4	180.19	324.79	235.78	170.15	106.04	263.91	173.88	127.16	351.95	92.069	72.144	306.38	95.478	43.801	339.23	98.193	45.715	277.38	279.17	45.532	246.72	293.77	48.076	366.11	367.41	64.921	314.53	-60.806	1532.8	337.27	-112.61	1259.1	339.99
310	1.2875	133.83	1278.1	347.1	5.7821	1483.7	512.02	-6.7214	1478.6	159.88	44.145	1799.6	332.13	81.343	1037.6	473.7	103.51	1047.7	219.71	-111.26	1055.4	369.56	-106.44	1060	289.32	20.659	958.15	517.01	16.157	967.71	160.82	-4.3169	1111.5	500.48	29.331	1114.1	181.04	-120.53	1022.5	331.36	26.347	708.24	520.04	89.582	629.46	502.46	20.923	619.61	505.95	99.56	719.95	512.89	29.257	513.34	499.6	66.223	506.78	374.42	-163.11	398.83	481.39	-172.95	310.87	458.58	-223.49	354.12	460.57	-113.36	355.66	479.31	-300.13	250.98	433.07	-276.41	245.19	346.35	-354.45	287.03	380.96	-375	270.35	344.92	-384.07	263.62	409.28	-324.36	94.717	439.96	-289.74	90.7	323.94	-252.33	39.017	367.84	137.31	722.37	186.56	196.91	658.52	253.86	136.84	633.54	208.47	190.12	750	228.07	142.77	541.13	226.24	158.71	555.33	346.33	116.66	311.18	239.24	184.63	254.31	248.94	115.12	239.6	257.49	181.9	324.6	235.65	170.49	106.03	264.04	174.32	127.16	352	92.157	72.197	306.44	95.541	43.854	339.27	98.246	45.804	277.41	279.24	45.463	246.71	293.9	47.605	366.24	367.6	64.222	314.62	-55.364	1533.3	337.09	-107.41	1259.7	339.72
311	1.2917	139.05	1278.4	347.31	10.915	1484.3	511.98	-0.92523	1479	159.81	49.628	1800.1	331.93	86.204	1037.8	473.49	108.72	1048.3	219.49	-106.12	1055.8	369.15	-101.35	1060.6	288.94	25.98	958.34	516.78	21.3	968.49	160.43	0.52373	1111.7	500.26	34.559	1114.8	180.88	-115.54	1023	330.87	35.511	708.62	520.6	99.791	630.65	503.01	31.175	619.9	506.61	108.56	721.24	513.11	41.066	513.99	500.48	77.731	507.59	375.04	-151.45	400.65	482.85	-161.97	312.87	459.69	-212.25	356.44	462.19	-101.96	357.2	480.32	-289.69	254.26	434.55	-266.23	248.09	347.72	-343.71	290.84	382.34	-364.6	274.2	346.46	-373.52	267.86	410.87	-315.43	98.241	441.97	-281.07	93.208	326.14	-244.17	40.073	370.2	141.19	722.53	186.18	200.52	658.43	253.47	140.29	633.72	208.14	194.22	749.95	227.57	145.77	541.24	225.98	161.83	555.38	346.03	118.2	311.42	239.3	185.82	254.12	248.87	116.23	239.87	257.6	183.52	324.41	235.51	170.8	106.04	264.18	174.73	127.17	352.06	92.241	72.241	306.51	95.597	43.902	339.3	98.294	45.889	277.43	279.31	45.412	246.71	294.01	47.179	366.37	367.76	63.588	314.71	-49.931	1533.9	336.93	-102.23	1260.2	339.45
312	1.2958	144.25	1278.7	347.53	16.026	1484.8	511.96	4.8514	1479.4	159.75	55.117	1800.6	331.74	91.032	1038.1	473.3	113.9	1048.9	219.27	-101.03	1056.1	368.74	-96.304	1061.1	288.54	31.243	958.56	516.56	26.398	969.25	160.05	5.3321	1111.8	500.04	39.767	1115.3	180.72	-110.59	1023.5	330.37	44.636	709.11	521.12	109.96	631.95	503.52	41.384	620.33	507.21	117.5	722.63	513.28	52.843	514.78	501.3	89.09	508.58	375.57	-139.76	402.44	484.26	-150.87	314.83	460.75	-200.93	358.68	463.77	-90.481	358.74	481.26	-279.12	257.37	435.96	-255.91	250.83	349.07	-332.97	294.28	383.62	-354.13	277.58	347.92	-362.89	271.68	412.39	-305.9	101.65	444.11	-271.81	95.586	328.44	-235.27	41.305	372.71	145	722.68	185.82	204.05	658.32	253.11	143.68	633.88	207.82	198.24	749.88	227.1	148.68	541.34	225.74	164.85	555.41	345.77	119.67	311.66	239.38	186.93	253.94	248.79	117.28	240.15	257.74	185.06	324.21	235.38	171.09	106.04	264.31	175.12	127.18	352.12	92.322	72.279	306.57	95.645	43.945	339.34	98.338	45.971	277.46	279.36	45.375	246.7	294.12	46.793	366.48	367.9	63.014	314.78	-44.506	1534.5	336.78	-97.066	1260.8	339.18
313	1.3	149.43	1279	347.77	21.114	1485.3	511.96	10.606	1479.8	159.69	60.613	1801.1	331.56	95.83	1038.3	473.13	119.05	1049.5	219.08	-95.983	1056.6	368.32	-91.288	1061.7	288.15	36.45	958.81	516.36	31.452	969.98	159.7	10.113	1112	499.83	44.961	1115.9	180.57	-105.67	1024	329.88	53.714	709.72	521.58	120.07	633.38	503.97	51.545	620.89	507.75	126.36	724.14	513.39	64.577	515.71	502.06	100.3	509.75	376.02	-128.05	404.19	485.62	-139.66	316.75	461.76	-189.56	360.81	465.31	-78.951	360.3	482.14	-268.43	260.3	437.3	-245.43	253.41	350.4	-322.24	297.34	384.81	-343.6	280.49	349.3	-352.18	275.07	413.83	-295.77	104.93	446.37	-261.98	97.813	330.82	-225.65	42.688	375.37	148.74	722.82	185.5	207.52	658.19	252.77	146.99	634.03	207.52	202.19	749.81	226.68	151.5	541.42	225.51	167.77	555.43	345.52	121.06	311.9	239.47	187.98	253.77	248.72	118.28	240.42	257.89	186.52	324.02	235.24	171.35	106.06	264.45	175.48	127.2	352.17	92.402	72.311	306.64	95.688	43.986	339.37	98.377	46.052	277.48	279.41	45.347	246.68	294.22	46.444	366.59	368.03	62.492	314.84	-39.092	1535.1	336.64	-91.919	1261.4	338.9
